# xmcd
#
# Track frame offsets: 
#        150
#        20476
#        37145
#        52801
#        71142
#        86233
#        104998
#        139577
#        156950
#        174542
#        198383
#
# Disc length: 3003 seconds
#
# Revision: 0
# Processed by: cddbd v1.5.2PL0 Copyright (c) Steve Scherf et al.
# Submitted via: ExactAudioCopy v1.3
#
DISCID=a10bb90b
DTITLE=Sly Geralds Band - New York's My Home
DYEAR=2019
DGENRE=Blues
TTITLE0=Let Me Talk to You
TTITLE1=Just Like Superman
TTITLE2=Shark With No Teeth
TTITLE3=Loose My Mind
TTITLE4=New York's My Home
TTITLE5=Hit the Ground Runnin'
TTITLE6=Dirty Little Secret
TTITLE7=4-Letter Word
TTITLE8=Troubled Man
TTITLE9=She's Got a Mojo Workin'
TTITLE10=Wishes
EXTD=
EXTT0=
EXTT1=
EXTT2=
EXTT3=
EXTT4=
EXTT5=
EXTT6=
EXTT7=
EXTT8=
EXTT9=
EXTT10=
PLAYORDER=
